# xmcd
#
# Track frame offsets:
#	150
#	22055
#	35442
#	49085
#	62705
#	76632
#	89795
#	102197
#	113650
#	124837
#	135917
#	150592
#	163355
#	174530
#	184527
#	196872
#	207145
#	223482
#	231100
#	243697
#	257742
#
# Disc length: 3619 seconds
#
# Revision: 1
# Processed by: cddbd v1.5.2PL0 Copyright (c) Steve Scherf et al.
# Submitted via: jack 3.1.1
#
DISCID=260e2115
DTITLE=Elmore James - King of the Slide Guitar- The Complete Trumpet,Chief, and Fire Sessions [CD2]
DYEAR=1997
DGENRE=Blues
TTITLE0=Something Inside Me
TTITLE1=Stranger Blues
TTITLE2=Anna Lee
TTITLE3=Standing At The Crossroads
TTITLE4=My Bleeding Heart
TTITLE5=My Kind Of Woman
TTITLE6=Got To Move
TTITLE7=So Unkind
TTITLE8=Person To Person
TTITLE9=One Way Out
TTITLE10=Stranger Blues
TTITLE11=Shake Your Moneymaker (Take 1-2)
TTITLE12=Look On Yonder Wall
TTITLE13=Go Back Home Again
TTITLE14=Mean Mistreatin' Mama (Take 3)
TTITLE15=Sunnyland Train
TTITLE16=You Know You Done Me Wrong
TTITLE17=Mean Mistreatin' Mama (Take 1)
TTITLE18=Mean Mistreatin' Mama (Take 2)
TTITLE19=You Know You're Wrong
TTITLE20=Find My Kind Of Woman (Take 1)
EXTD=Digitally Remastered At Charly Studios
EXTT0=
EXTT1=
EXTT2=
EXTT3=
EXTT4=
EXTT5=
EXTT6=
EXTT7=
EXTT8=
EXTT9=
EXTT10=
EXTT11=
EXTT12=
EXTT13=
EXTT14=
EXTT15=
EXTT16=
EXTT17=
EXTT18=
EXTT19=
EXTT20=
PLAYORDER=
